<?xml version="1.0" encoding="UTF-8" standalone="no"?>
<svg
   xmlns:dc="http://purl.org/dc/elements/1.1/"
   xmlns:cc="http://creativecommons.org/ns#"
   xmlns:rdf="http://www.w3.org/1999/02/22-rdf-syntax-ns#"
   xmlns:svg="http://www.w3.org/2000/svg"
   xmlns="http://www.w3.org/2000/svg"
   xmlns:sodipodi="http://sodipodi.sourceforge.net/DTD/sodipodi-0.dtd"
   xmlns:inkscape="http://www.inkscape.org/namespaces/inkscape"
   height="533.33331"
   width="466.06668"
   version="1.1"
   id="Layer_1"
   viewBox="-26.25 -50 88.358475 199.99999"
   sodipodi:docname="discord.svg"
   inkscape:version="0.92.4 5da689c313, 2019-01-14">
  <metadata
     id="metadata1634">
    <rdf:RDF>
      <cc:Work
         rdf:about="">
        <dc:format>image/svg+xml</dc:format>
        <dc:type
           rdf:resource="http://purl.org/dc/dcmitype/StillImage" />
        <dc:title></dc:title>
      </cc:Work>
    </rdf:RDF>
  </metadata>
  <defs
     id="defs1632" />
  <sodipodi:namedview
     pagecolor="#ffffff"
     bordercolor="#666666"
     borderopacity="1"
     objecttolerance="10"
     gridtolerance="10"
     guidetolerance="10"
     inkscape:pageopacity="0"
     inkscape:pageshadow="2"
     inkscape:window-width="958"
     inkscape:window-height="528"
     id="namedview1630"
     showgrid="false"
     fit-margin-top="0"
     fit-margin-left="0"
     fit-margin-right="-0.6"
     fit-margin-bottom="0"
     inkscape:pagecheckerboard="true"
     inkscape:zoom="0.25833333"
     inkscape:cx="193.98448"
     inkscape:cy="-43.010726"
     inkscape:window-x="961"
     inkscape:window-y="20"
     inkscape:window-maximized="0"
     inkscape:current-layer="Layer_1" />
  <style
     id="style41">.st0{fill:#fff}</style>
  <path
     id="path43"
     d="m -0.11388706,33.9 c -5.70000004,0 -10.19999994,5 -10.19999994,11.1 0,6.1 4.5999999,11.1 10.19999994,11.1 5.69999996,0 10.20000006,-5 10.20000006,-11.1 0.1,-6.1 -4.5000001,-11.1 -10.20000006,-11.1 z m 36.50000006,0 c -5.7,0 -10.2,5 -10.2,11.1 0,6.1 4.6,11.1 10.2,11.1 5.7,0 10.2,-5 10.2,-11.1 0,-6.1 -4.5,-11.1 -10.2,-11.1 z"
     class="st0"
     inkscape:connector-curvature="0"
     style="fill:#ffffff" />
  <path
     id="path45"
     d="m 84.986113,-50 h -134 c -11.3,0 -20.5,9.2 -20.5,20.6 v 135.2 c 0,11.4 9.2,20.6 20.5,20.6 h 113.4 l -5.3,-18.5 12.8,11.9 12.1,11.2 21.499997,19 V -29.4 c 0,-11.4 -9.199997,-20.6 -20.499997,-20.6 z m -38.6,130.6 c 0,0 -3.6,-4.3 -6.6,-8.1 13.1,-3.7 18.1,-11.9 18.1,-11.9 -4.1,2.7 -8,4.6 -11.5,5.9 -5,2.1 -9.8,3.5 -14.5,4.3 -9.6,1.8 -18.4,1.3 -25.9000001,-0.1 -5.69999996,-1.1 -10.6,-2.7 -14.7,-4.3 -2.2999999,-0.9 -4.7999999,-2 -7.2999999,-3.4 -0.3,-0.2 -0.6,-0.3 -0.9,-0.5 -0.2,-0.1 -0.3,-0.2 -0.4,-0.3 -1.8,-1 -2.8,-1.7 -2.8,-1.7 0,0 4.8,8 17.4999999,11.8 -3,3.8 -6.7,8.3 -6.7,8.3 C -31.413887,79.9 -39.813887,65.4 -39.813887,65.4 c 0,-32.2 14.4,-58.3 14.4,-58.3 14.4,-10.8 28.0999999,-10.5 28.0999999,-10.5 l 1,1.2 C -14.313887,3 -22.613887,10.9 -22.613887,10.9 c 0,0 2.2,-1.2 5.9,-2.9 C -6.0138871,3.3 2.4861129,2 5.9861129,1.7 c 0.6,-0.1 1.1,-0.2 1.7,-0.2 6.1000001,-0.8 13.0000001,-1 20.2000001,-0.2 9.5,1.1 19.7,3.9 30.1,9.6 0,0 -7.9,-7.5 -24.9,-12.7 l 1.4,-1.6 c 0,0 13.7,-0.3 28.1,10.5 0,0 14.4,26.1 14.4,58.3 0,0 -8.5,14.5 -30.6,15.2 z"
     class="st0"
     inkscape:connector-curvature="0"
     style="fill:#ffffff" />
</svg>
