<?xml version="1.0" encoding="UTF-8" standalone="no"?>
<svg
   xmlns:dc="http://purl.org/dc/elements/1.1/"
   xmlns:cc="http://creativecommons.org/ns#"
   xmlns:rdf="http://www.w3.org/1999/02/22-rdf-syntax-ns#"
   xmlns:svg="http://www.w3.org/2000/svg"
   xmlns="http://www.w3.org/2000/svg"
   xmlns:sodipodi="http://sodipodi.sourceforge.net/DTD/sodipodi-0.dtd"
   xmlns:inkscape="http://www.inkscape.org/namespaces/inkscape"
   height="317.92969"
   width="317.92773"
   stroke-miterlimit="1.4142"
   viewBox="-39.158565 -22.4785 89.913733 53.599369"
   version="1.1"
   id="svg2284"
   sodipodi:docname="reddit.svg"
   style="clip-rule:evenodd;fill-rule:evenodd;stroke-linejoin:round;stroke-miterlimit:1.41419995"
   inkscape:version="0.92.4 5da689c313, 2019-01-14">
  <metadata
     id="metadata2290">
    <rdf:RDF>
      <cc:Work
         rdf:about="">
        <dc:format>image/svg+xml</dc:format>
        <dc:type
           rdf:resource="http://purl.org/dc/dcmitype/StillImage" />
        <dc:title></dc:title>
      </cc:Work>
    </rdf:RDF>
  </metadata>
  <defs
     id="defs2288" />
  <sodipodi:namedview
     pagecolor="#ffffff"
     bordercolor="#666666"
     borderopacity="1"
     objecttolerance="10"
     gridtolerance="10"
     guidetolerance="10"
     inkscape:pageopacity="0"
     inkscape:pageshadow="2"
     inkscape:window-width="958"
     inkscape:window-height="528"
     id="namedview2286"
     showgrid="false"
     inkscape:pagecheckerboard="true"
     fit-margin-top="0"
     fit-margin-left="0"
     fit-margin-right="0"
     fit-margin-bottom="0"
     inkscape:zoom="0.73067701"
     inkscape:cx="211.99214"
     inkscape:cy="266.21581"
     inkscape:window-x="961"
     inkscape:window-y="20"
     inkscape:window-maximized="0"
     inkscape:current-layer="svg2284" />
  <path
     style="fill:#ffffff;stroke-width:1"
     d="M 5.7985782,-40.635958 A 44.957001,44.957001 0 0 0 -39.158565,4.3211838 44.957001,44.957001 0 0 0 5.7985782,49.278329 44.957001,44.957001 0 0 0 50.755169,4.3211838 44.957001,44.957001 0 0 0 5.7985782,-40.635958 Z m 18.7766088,17.81107 c 2.574999,0 4.667499,2.091948 4.667499,4.66695 0,2.576 -2.0925,4.668053 -4.667499,4.668053 -2.522,0 -4.559501,-1.98463 -4.667501,-4.45263 l -9.76419,-2.092366 -3.0043245,14.0560798 c 6.8669995,0.268001 13.0371745,2.359907 17.5431735,5.57890502 1.180001,-1.12699902 2.790343,-1.82391602 4.560341,-1.82391602 3.595002,0 6.544996,2.89699802 6.544996,6.544996 0,2.682001 -1.609149,4.9892 -3.862149,6.0092012 0.107001,0.643001 0.160738,1.340653 0.160738,1.984655 0,10.139 -11.749113,18.294392 -26.2341141,18.294392 -14.4849984,0 -26.2335599,-8.209392 -26.2335599,-18.294392 0,-0.698003 0.05274,-1.341654 0.160739,-1.984655 -2.254002,-1.0200012 -3.862704,-3.2730692 -3.862704,-5.9550682 0,-3.59499898 2.896997,-6.544996 6.544996,-6.544996 a 6.5883,6.5883 0 0 1 4.55979,1.82391602 C -8.4185833,-3.6187642 -2.1415118,-5.7107752 4.8324872,-5.9257742 L 8.1593955,-21.590901 c 0.052999,-0.321998 0.2142158,-0.589665 0.482214,-0.750665 0.215002,-0.160999 0.5369324,-0.21529 0.8589307,-0.16129 l 10.8899138,2.307236 c 0.751001,-1.556 2.360732,-2.629268 4.184733,-2.629268 z M -4.5014071,4.3211838 c -2.5760003,0 -4.668053,2.091948 -4.668053,4.666947 0,2.5750022 2.0920527,4.7210552 4.668053,4.6680532 2.5749991,0 4.66694716,-2.093051 4.66694716,-4.6680532 0,-2.574999 -2.09194806,-4.666947 -4.66694716,-4.666947 z m 20.5999711,0.05413 c -2.575,0 -4.666948,2.091948 -4.666948,4.666947 0,2.5750002 2.091948,4.6669482 4.666948,4.6669482 2.576,0 4.668052,-2.145948 4.668052,-4.6669482 0,-2.574999 -2.092052,-4.666947 -4.668052,-4.666947 z M -4.3948012,19.303032 c -0.3084996,0 -0.6174292,0.120249 -0.8589307,0.361247 -0.4819991,0.483 -0.4819991,1.233758 0,1.716759 3.1659996,3.164998 9.2818909,3.434065 11.1058888,3.434065 1.7700007,0 7.8863391,-0.215067 11.1053371,-3.434065 0.429,-0.483001 0.429,-1.233759 0,-1.716759 -0.483,-0.481999 -1.234309,-0.481999 -1.717307,0 -1.985,2.039003 -6.3300279,2.735874 -9.3880301,2.735874 -3.0579994,0 -7.3495789,-0.696871 -9.3885788,-2.735874 -0.2415016,-0.240998 -0.5498796,-0.361247 -0.8583793,-0.361247 z"
     id="circle2278"
     inkscape:connector-curvature="0" />
</svg>
