<?xml version="1.0" encoding="UTF-8" standalone="no"?>
<!-- Created with Inkscape (http://www.inkscape.org/) -->

<svg
   xmlns:dc="http://purl.org/dc/elements/1.1/"
   xmlns:cc="http://creativecommons.org/ns#"
   xmlns:rdf="http://www.w3.org/1999/02/22-rdf-syntax-ns#"
   xmlns:svg="http://www.w3.org/2000/svg"
   xmlns="http://www.w3.org/2000/svg"
   xmlns:sodipodi="http://sodipodi.sourceforge.net/DTD/sodipodi-0.dtd"
   xmlns:inkscape="http://www.inkscape.org/namespaces/inkscape"
   width="51.232002mm"
   height="16.4846mm"
   viewBox="0 0 51.232002 16.4846"
   version="1.1"
   id="svg8"
   inkscape:version="0.92.4 5da689c313, 2019-01-14"
   sodipodi:docname="tonkadur_logo_white_as_path.svg">
  <defs
     id="defs2" />
  <sodipodi:namedview
     id="base"
     pagecolor="#ffffff"
     bordercolor="#666666"
     borderopacity="1.0"
     inkscape:pageopacity="0.0"
     inkscape:pageshadow="2"
     inkscape:zoom="2.8"
     inkscape:cx="65.374106"
     inkscape:cy="9.8673018"
     inkscape:document-units="mm"
     inkscape:current-layer="layer1"
     showgrid="false"
     fit-margin-top="0"
     fit-margin-left="0"
     fit-margin-right="0"
     fit-margin-bottom="0"
     inkscape:window-width="1918"
     inkscape:window-height="1059"
     inkscape:window-x="1"
     inkscape:window-y="20"
     inkscape:window-maximized="0" />
  <metadata
     id="metadata5">
    <rdf:RDF>
      <cc:Work
         rdf:about="">
        <dc:format>image/svg+xml</dc:format>
        <dc:type
           rdf:resource="http://purl.org/dc/dcmitype/StillImage" />
        <dc:title></dc:title>
      </cc:Work>
    </rdf:RDF>
  </metadata>
  <g
     inkscape:label="Layer 1"
     inkscape:groupmode="layer"
     id="layer1"
     transform="translate(-61.119356,-51.9597)">
    <flowRoot
       xml:space="preserve"
       id="flowRoot841"
       style="font-style:normal;font-variant:normal;font-weight:normal;font-stretch:normal;font-size:10.66666698px;line-height:125%;font-family:'Times New Roman';-inkscape-font-specification:'Times New Roman, ';letter-spacing:0px;word-spacing:0px;fill:#000000;fill-opacity:1;stroke:none;stroke-width:1px;stroke-linecap:butt;stroke-linejoin:miter;stroke-opacity:1"
       transform="scale(0.26458333)"><flowRegion
         id="flowRegion843"><rect
           id="rect845"
           width="73.571426"
           height="125"
           x="574.28571"
           y="174.66254" /></flowRegion><flowPara
         id="flowPara847" /></flowRoot>    <g
       id="g930"
       style="fill:#ffffff">
      <g
         aria-label="onkadur"
         style="font-style:normal;font-variant:normal;font-weight:normal;font-stretch:normal;font-size:1.93140244px;line-height:125%;font-family:'Times New Roman';-inkscape-font-specification:'Times New Roman, ';letter-spacing:0px;word-spacing:0px;fill:#ffffff;fill-opacity:1;stroke:none;stroke-width:0.78100002;stroke-linecap:round;stroke-linejoin:miter;stroke-miterlimit:4;stroke-dasharray:none;stroke-opacity:1;paint-order:markers stroke fill"
         id="text817">
        <path
           d="m 67.985354,60.488438 q 0,-1.220646 0.818915,-2.085914 0.818914,-0.88072 2.02411,-0.88072 1.189743,0 2.03956,0.865269 0.865269,0.865268 0.865269,2.055012 0,0.957975 -0.556244,1.745988 -0.818915,1.14339 -2.441293,1.14339 -1.251549,0 -2.008658,-0.772561 -0.741659,-0.772561 -0.741659,-2.070464 z m 2.750317,-2.379487 q -0.695305,0.09271 -1.035232,1.004329 -0.231768,0.618049 -0.231768,1.514219 0,0.88072 0.370829,1.452415 0.432635,0.664403 1.267,0.664403 0.710757,0 1.081586,-0.664403 0.293573,-0.525341 0.293573,-1.297902 0,-0.664403 -0.216317,-1.189744 -0.278122,-0.710756 -0.849817,-0.710756 -0.139061,0 -0.355378,0.123609 -0.216317,0.12361 -0.231768,0.12361 v -0.494439 q 0.293573,-0.216317 0.478987,-0.478988 -0.139061,-0.0309 -0.278122,-0.04635 -0.154512,-0.01545 -0.293573,0 z"
           style="font-style:normal;font-variant:normal;font-weight:normal;font-stretch:normal;font-size:15.45121956px;font-family:'Argos George';-inkscape-font-specification:'Argos George';fill:#ffffff;fill-opacity:1;stroke:none;stroke-width:0.78100002;stroke-linecap:round;stroke-miterlimit:4;stroke-dasharray:none;stroke-opacity:1;paint-order:markers stroke fill"
           id="path829" />
        <path
           d="m 74.352222,57.954438 q 0.09271,0 0.818915,-0.154512 0.50989,-0.108158 0.788012,-0.108158 0.169963,0 0.324476,0.231768 0.07726,0.12361 0.216317,0.370829 0.200865,-0.278122 0.834365,-0.448085 0.540793,-0.154512 0.973427,-0.154512 0.849817,0 0.927073,0.01545 0.648952,0.0618 0.648952,0.772561 v 2.348585 q 0,0.803464 0.417183,1.63783 0.0309,0.07726 0.556244,0.988878 h -1.375159 q -0.664402,0 -0.865268,-0.911622 -0.09271,-0.417183 -0.09271,-1.421513 v -0.803463 q 0.01545,-0.108158 0.01545,-0.278122 0.04635,-1.931402 -0.726208,-1.931402 -0.370829,0 -0.834366,0.169963 -0.618048,0.216317 -0.618048,0.571695 v 3.1675 q 0,0.772561 0.293573,1.251549 h -1.761439 q 0.12361,-0.772561 0.12361,-2.843024 0,-1.00433 -0.0309,-1.962305 -0.216317,-0.04635 -0.309024,-0.09271 -0.324476,-0.154512 -0.324476,-0.417183 z"
           style="font-style:normal;font-variant:normal;font-weight:normal;font-stretch:normal;font-size:15.45121956px;font-family:'Argos George';-inkscape-font-specification:'Argos George';fill:#ffffff;fill-opacity:1;stroke:none;stroke-width:0.78100002;stroke-linecap:round;stroke-miterlimit:4;stroke-dasharray:none;stroke-opacity:1;paint-order:markers stroke fill"
           id="path831" />
        <path
           d="m 81.382286,55.18867 q 0.849817,-0.525341 1.792342,-1.467866 l -0.169964,5.979622 q 0.478988,-0.478988 1.282451,-0.757109 0.231769,-0.07726 1.452415,-0.386281 0.664402,-0.247219 0.911622,-0.896171 0.540793,0.355378 0.540793,0.896171 0,0.339927 -0.37083,0.50989 -0.247219,0.07726 -0.788012,0.12361 -0.540793,0.0309 -0.741658,0.108159 0.834365,1.931402 1.220646,2.642158 0.200866,0.355378 0.880719,1.483317 -0.432634,0.06181 -0.957975,0.06181 -1.050683,0 -1.483317,-1.297902 -0.463537,-1.359708 -0.988878,-2.549452 -0.478988,0.139061 -0.927073,0.494439 0.01545,0.834366 0.01545,1.653281 0.0309,0.988878 0.154512,1.637829 h -1.77689 q 0.01545,-0.01545 0.200866,-0.602597 0.09271,-0.293574 0.09271,-0.463537 v -2.456744 q 0,-0.231768 0,-0.494439 0.01545,-0.293573 0.01545,-0.309024 0.01545,-3.383817 -0.355378,-3.909159 z"
           style="font-style:normal;font-variant:normal;font-weight:normal;font-stretch:normal;font-size:15.45121956px;font-family:'Argos George';-inkscape-font-specification:'Argos George';fill:#ffffff;fill-opacity:1;stroke:none;stroke-width:0.78100002;stroke-linecap:round;stroke-miterlimit:4;stroke-dasharray:none;stroke-opacity:1;paint-order:markers stroke fill"
           id="path833" />
        <path
           d="m 88.144366,60.565695 q 0,-1.205196 0.710756,-2.055013 0.726207,-0.865268 1.9005,-0.865268 0.216317,0 0.618049,0.07726 0.417183,0.07726 0.6335,0.07726 0.309024,0 0.417183,-0.154512 0.818914,0.370829 1.406061,0.571695 -0.24722,1.050683 -0.24722,2.394939 0,1.761439 0.432634,2.688512 -0.169963,-0.0309 -0.525341,-0.108158 -0.339927,-0.07726 -0.540793,-0.07726 -0.324475,0 -0.788012,0.09271 -0.911622,0.185415 -1.267,0.185415 -1.236098,0 -1.993207,-0.772561 -0.75711,-0.788012 -0.75711,-2.055012 z m 3.136598,-2.441293 q -0.865269,0 -1.313354,0.679854 -0.370829,0.571695 -0.370829,1.483317 0,1.328804 0.772561,2.039561 0.525341,0.494439 1.004329,0.494439 0.788012,0 0.788012,-0.973427 V 58.912414 Q 91.914464,58.448877 91.86811,58.387073 91.651793,58.124402 91.280964,58.124402 Z"
           style="font-style:normal;font-variant:normal;font-weight:normal;font-stretch:normal;font-size:15.45121956px;font-family:'Argos George';-inkscape-font-specification:'Argos George';fill:#ffffff;fill-opacity:1;stroke:none;stroke-width:0.78100002;stroke-linecap:round;stroke-miterlimit:4;stroke-dasharray:none;stroke-opacity:1;paint-order:markers stroke fill"
           id="path835" />
        <path
           d="m 100.17531,53.689902 q 0.21632,0.556244 0.20087,1.637829 -0.0155,0.618049 -0.0618,2.889378 -0.0618,2.14772 -0.0463,2.904829 0,0.185415 0.10816,0.788013 0.13906,0.834366 0.47899,1.328805 -0.71076,-0.12361 -1.313356,-0.12361 -0.417183,0 -1.174293,0.12361 -0.75711,0.108158 -1.097037,0.108158 H 97.08507 q -1.066134,0 -1.715086,-0.834366 -0.571695,-0.772561 -0.571695,-1.869597 0,-1.050683 0.556244,-1.977756 0.6335,-1.050683 1.622378,-1.050683 0.185415,0 0.262671,0.01545 0.370829,0.06181 0.896171,0.185414 0.448085,0.154513 0.757109,0.478988 v -0.741658 q 0.01545,-0.09271 0.01545,-0.216317 0.01545,-1.328805 -0.309025,-2.364037 0.417183,-0.309024 0.896171,-0.741658 0.262671,-0.24722 0.67985,-0.540793 z m -2.549448,4.511756 q -0.664402,0 -1.004329,0.741659 -0.262671,0.556243 -0.262671,1.313353 0,1.205195 0.24722,1.715086 0.355378,0.710756 1.282451,0.710756 0.50989,0 1.004329,-0.07726 v -3.553781 q 0,-0.38628 -0.463536,-0.6335 -0.401732,-0.216317 -0.803464,-0.216317 z"
           style="font-style:normal;font-variant:normal;font-weight:normal;font-stretch:normal;font-size:15.45121956px;font-family:'Argos George';-inkscape-font-specification:'Argos George';fill:#ffffff;fill-opacity:1;stroke:none;stroke-width:0.78100002;stroke-linecap:round;stroke-miterlimit:4;stroke-dasharray:none;stroke-opacity:1;paint-order:markers stroke fill"
           id="path837" />
        <path
           d="m 104.74332,57.84628 1.9314,0.0309 v 4.697171 q 0,0.401732 0.33993,0.741659 h -1.8696 v -0.293574 q 0,-0.216317 0.0155,-0.324475 0,-0.185415 -0.0155,-0.24722 l -0.58714,0.07726 q -0.20087,0.0309 -1.32881,0.571696 -0.44808,0.216317 -0.6335,0.216317 -0.78801,0 -0.78801,-0.679854 v -3.631037 q 0,-0.463536 -0.55624,-1.158841 h 1.63783 q 0.29357,0.417183 0.29357,0.679854 l -0.0309,3.801 q 0,0.293573 0.20086,0.293573 0.24722,-0.07726 1.01978,-0.386281 0.50989,-0.200866 0.86527,-0.200866 v -3.306561 q 0,-0.309024 -0.49444,-0.880719 z"
           style="font-style:normal;font-variant:normal;font-weight:normal;font-stretch:normal;font-size:15.45121956px;font-family:'Argos George';-inkscape-font-specification:'Argos George';fill:#ffffff;fill-opacity:1;stroke:none;stroke-width:0.78100002;stroke-linecap:round;stroke-miterlimit:4;stroke-dasharray:none;stroke-opacity:1;paint-order:markers stroke fill"
           id="path839" />
        <path
           d="m 109.94097,58.139853 q 0.64895,-0.448085 0.6953,-0.478988 0.50989,-0.293573 0.92708,-0.293573 0.78801,0 0.78801,0.772561 0,0.463537 -0.30903,0.741659 -0.30902,0.278122 -0.77256,0.278122 0.29358,-0.339927 0.29358,-0.540793 0,-0.169964 -0.20087,-0.278122 -0.18541,-0.108159 -0.38628,-0.108159 -0.67985,0 -1.03523,0.896171 -0.24722,0.6335 -0.24722,1.467866 0,0.88072 0.30902,1.591476 0.38628,0.865268 0.43264,1.14339 -1.28245,0 -1.63783,-0.231768 -0.46354,-0.309025 -0.46354,-1.436964 v -2.843024 q 0,-0.432634 -0.29357,-0.865269 -0.13906,-0.200865 -0.29358,-0.355378 0.35538,-0.04635 1.18975,-0.04635 h 0.27812 q 0.44809,0 0.55624,0.216317 0.10816,0.200866 0.16997,0.370829 z"
           style="font-style:normal;font-variant:normal;font-weight:normal;font-stretch:normal;font-size:15.45121956px;font-family:'Argos George';-inkscape-font-specification:'Argos George';fill:#ffffff;fill-opacity:1;stroke:none;stroke-width:0.78100002;stroke-linecap:round;stroke-miterlimit:4;stroke-dasharray:none;stroke-opacity:1;paint-order:markers stroke fill"
           id="path841" />
      </g>
      <g
         aria-label="T"
         style="font-style:normal;font-variant:normal;font-weight:normal;font-stretch:normal;font-size:2.82222223px;line-height:125%;font-family:'Times New Roman';-inkscape-font-specification:'Times New Roman, ';letter-spacing:0px;word-spacing:0px;fill:#ffffff;fill-opacity:1;stroke:none;stroke-width:0.26458332px;stroke-linecap:butt;stroke-linejoin:miter;stroke-opacity:1"
         id="text924">
        <path
           d="m 67.520156,52.3661 q 0.127,0 2.286,0.127 0.8636,0.0508 1.4224,0.0508 1.955799,0 3.860799,-0.5842 -0.1524,1.397 -1.2192,2.2606 -1.0668,0.8636 -2.489199,0.8636 -1.1938,0 -3.9116,-1.016 -2.7178,-1.0414 -3.81,-1.0414 -1.9304,0 -1.9304,1.9304 0,0.8128 0.6096,1.3716 0.3556,0.3302 1.3208,0.7874 -0.508,0.889 -0.7874,0.889 -1.0414,-0.3556 -1.4478,-1.143 -0.3048,-0.5842 -0.3048,-1.3716 0,-1.27 0.508,-1.9812 0.508,-0.7112 1.7018,-1.143 0.4064,-0.1524 1.524,-0.1524 1.1938,0 2.159,0.0762 0.1016,0 0.508,0.0762 z m -4.318,9.1694 q 0,-1.5494 0.9652,-3.81 1.0414,-2.3622 2.2352,-3.175 -0.9652,2.9718 -0.9652,4.2672 0,2.3622 1.1684,4.3942 1.7018,2.9972 5.1054,2.9972 0.635,0 1.549399,-0.3556 0.9398,-0.381 1.397,-0.4064 -0.8128,1.27 -2.565399,2.1336 -1.7272,0.8636 -3.302,0.8636 -1.778,0 -3.5306,-1.8288 -2.0574,-2.1336 -2.0574,-5.08 z"
           style="font-style:normal;font-variant:normal;font-weight:normal;font-stretch:normal;font-size:25.39999962px;font-family:'Argos George';-inkscape-font-specification:'Argos George';fill:#ffffff;stroke-width:0.26458332px"
           id="path844" />
      </g>
    </g>
  </g>
</svg>
